<?xml version="1.0" encoding="UTF-8" standalone="no"?>
<svg
   version="1.1"
   viewBox="-5 -10 104.712 104.712"
   id="svg2"
   sodipodi:docname="logo.svg"
   inkscape:version="1.4 (e7c3feb100, 2024-10-09)"
   width="104.712"
   height="104.712"
   xmlns:inkscape="http://www.inkscape.org/namespaces/inkscape"
   xmlns:sodipodi="http://sodipodi.sourceforge.net/DTD/sodipodi-0.dtd"
   xmlns="http://www.w3.org/2000/svg"
   xmlns:svg="http://www.w3.org/2000/svg">
  <defs
     id="defs2" />
  <sodipodi:namedview
     id="namedview2"
     pagecolor="#ffffff"
     bordercolor="#000000"
     borderopacity="0.25"
     inkscape:showpageshadow="2"
     inkscape:pageopacity="0.0"
     inkscape:pagecheckerboard="0"
     inkscape:deskcolor="#d1d1d1"
     inkscape:zoom="5.374074"
     inkscape:cx="72.663681"
     inkscape:cy="48.10131"
     inkscape:window-width="2644"
     inkscape:window-height="1226"
     inkscape:window-x="0"
     inkscape:window-y="0"
     inkscape:window-maximized="0"
     inkscape:current-layer="svg2" />
  <circle
     style="fill:#d3bdda;stroke:#9558b2;stroke-width:3.774;stroke-linecap:round"
     id="path3"
     cx="8.0383835"
     cy="76.731056"
     r="5.0241213" />
  <circle
     style="fill:#b0d5b5;stroke:#389826;stroke-width:3.774;stroke-linecap:round"
     id="path3-6"
     cx="27.555016"
     cy="83.493805"
     r="5.0241213" />
  <path
     style="fill:none;stroke:#389826;stroke-width:3.774;stroke-linecap:round"
     d="M 27.555017,78.469684 V 57.570295"
     id="path4" />
  <path
     style="fill:none;stroke:#9558b2;stroke-width:3.774;stroke-linecap:round"
     d="m 11.216667,72.840002 3.89226,-3.056244 c 0.99914,-0.915023 2.47504,-2.727588 2.4888,-5.024121 v -7.189342"
     id="path5"
     sodipodi:nodetypes="cccc" />
  <path
     style="fill:#a5cdff;stroke:#4063d8;stroke-width:3.774;stroke-linecap:round"
     d="M 86.637797,53.631311 C 106.38072,43.973719 97.100793,20.170214 81.427617,20.925984 84.360394,-13.822828 42.118973,-12.128714 33.270287,12.04451 20.6935,3.5974703 5.9817355,17.507409 11.734794,29.307266 -9.4717862,34.861675 -6.9930633,57.570295 13.007357,57.570295 h 25.88242"
     id="path2"
     sodipodi:nodetypes="cccccc" />
  <path
     id="path7"
     style="fill:#eab1ad;stroke:#cb3c33;stroke-width:3.774;stroke-linecap:round"
     d="m 64.403455,30.564905 c -1.35615,0 -2.44922,1.093076 -2.44922,2.449219 v 6.376953 a 19.945877,19.945877 0 0 0 -5.03516,2.09375 l -4.51562,-4.515625 c -0.95894,-0.958938 -2.50201,-0.958938 -3.46094,0 l -3.64844,3.648437 c -0.95894,0.958938 -0.95894,2.503954 0,3.462891 l 4.51562,4.515625 a 19.945877,19.945877 0 0 0 -2.09374,5.035156 h -6.37891 c -1.35614,0 -2.44727,1.091124 -2.44727,2.447266 v 5.160156 c 0,1.356142 1.09113,2.447266 2.44727,2.447266 h 6.37891 a 19.945877,19.945877 0 0 0 2.09374,5.035156 l -4.51562,4.515625 c -0.95894,0.958937 -0.95894,2.502 0,3.460937 l 3.64844,3.648441 c 0.95893,0.95893 2.502,0.95893 3.46094,0 l 4.51562,-4.515628 a 19.945877,19.945877 0 0 0 5.03516,2.09375 v 6.378908 c 0,1.35614 1.09307,2.44726 2.44922,2.44726 h 5.1582 c 1.35614,0 2.44726,-1.09112 2.44726,-2.44726 V 77.92428 a 19.945877,19.945877 0 0 0 5.03711,-2.09375 l 4.51563,4.515628 c 0.95894,0.95893 2.502,0.95893 3.46094,0 l 3.64843,-3.648441 c 0.95894,-0.958937 0.95894,-2.502 0,-3.460937 l -4.51562,-4.515625 a 19.945877,19.945877 0 0 0 2.09375,-5.035156 h 6.37695 c 1.35614,0 2.44922,-1.091124 2.44922,-2.447266 v -5.160156 c 0,-1.356142 -1.09308,-2.447266 -2.44922,-2.447266 h -6.3457 a 19.945877,19.945877 0 0 0 -2.09766,-5.0625 l 4.48828,-4.488281 c 0.95894,-0.958937 0.95894,-2.503953 0,-3.462891 l -3.64843,-3.648437 c -0.95894,-0.958938 -2.502,-0.958938 -3.46094,0 l -4.48828,4.488281 a 19.945877,19.945877 0 0 0 -5.06446,-2.097656 v -6.345703 c 0,-1.356143 -1.09112,-2.449219 -2.44726,-2.449219 z" />
  <circle
     style="fill:none;stroke:#cb3c33;stroke-width:3.774;stroke-linecap:round"
     id="path6"
     cx="66.982552"
     cy="58.657681"
     r="12.101616" />
</svg>
